<?xml version="1.0" encoding="UTF-8"?>
<svg width="24px" height="24px" viewBox="0 0 24 24" version="1.1" xmlns="http://www.w3.org/2000/svg" xmlns:xlink="http://www.w3.org/1999/xlink">
    <!-- Generator: Sketch 58 (84663) - https://sketch.com -->
    <title>Slice 1</title>
    <desc>Created with Sketch.</desc>
    <g id="Page-1" stroke="none" stroke-width="1" fill="none" fill-rule="evenodd">
        <g id="noun_edit_972363" fill="#FFFFFF" fill-rule="nonzero">
            <g id="Group">
                <path d="M2.006,24 C0.9,24 0,23.101 0,21.994 L0.002,5.005 C0.002,3.899 0.903,3 2.008,3 L12.002,3 L12.002,4 L2.008,4 C1.454,4 1.002,4.451 1.002,5.006 L1,21.994 C1,22.549 1.452,23 2.006,23 L18.994,22.998 C19.549,22.998 20,22.547 20,21.992 L20,11.998 L21,11.998 L21,21.992 C21,23.098 20.101,23.998 18.994,23.998 L2.006,24 Z" id="Path"></path>
                <path d="M6.098,18.49 L5.51,17.902 L6.45,13.2 C6.509,12.907 6.651,12.642 6.861,12.432 L18.315,0.978 C18.943,0.349 19.779,0.003 20.669,0.003 C22.504,0.003 23.997,1.496 23.997,3.332 C23.997,4.221 23.651,5.057 23.022,5.686 L11.568,17.139 C11.36,17.348 11.095,17.491 10.801,17.55 L6.098,18.49 Z M20.669,1.002 C20.056,1.002 19.456,1.251 19.023,1.684 L7.568,13.14 C7.498,13.209 7.45,13.298 7.431,13.397 L6.638,17.363 L10.605,16.57 C10.703,16.55 10.791,16.503 10.86,16.433 L22.315,4.978 C22.754,4.538 22.997,3.953 22.997,3.332 C22.997,2.047 21.953,1.002 20.669,1.002 Z" id="Shape"></path>
            </g>
        </g>
    </g>
</svg>