<?xml version="1.0" encoding="UTF-8"?>
<svg width="52px" height="60px" viewBox="0 0 52 60" version="1.1" xmlns="http://www.w3.org/2000/svg" xmlns:xlink="http://www.w3.org/1999/xlink">
    <!-- Generator: Sketch 58 (84663) - https://sketch.com -->
    <title>Slice 1</title>
    <desc>Created with Sketch.</desc>
    <g id="Page-1" stroke="none" stroke-width="1" fill="none" fill-rule="evenodd">
        <g id="noun_Delete_756856" transform="translate(1.000000, 1.000000)" stroke="#FFFFFF" stroke-width="2">
            <g id="Group">
                <g id="Path">
                    <path d="M47,10 L45.1662235,54.0106363 C45.0744208,56.213901 43.2035752,58 40.9999745,58 L9.0000255,58 C6.7908724,58 4.9252478,56.2059475 4.8337765,54.0106363 L3,10" stroke-linecap="round" stroke-linejoin="round"></path>
                    <path d="M25,16 L25,50" stroke-linecap="round" stroke-linejoin="round"></path>
                    <path d="M14,16 L15,50" stroke-linecap="round" stroke-linejoin="round"></path>
                    <path d="M36,16 L35,50" stroke-linecap="round" stroke-linejoin="round"></path>
                    <path d="M0,5 L50,5" stroke-linecap="round" stroke-linejoin="round"></path>
                    <path d="M15,5 L16.070261,2.3243475 C16.5837417,1.0406458 18.1250889,0 19.5,0 L30.5,0 C31.8807119,0 33.4144013,1.0360032 33.929739,2.3243475 L35,5"></path>
                </g>
            </g>
        </g>
    </g>
</svg>