<?xml version="1.0" encoding="UTF-8"?>
<svg width="20px" height="22px" viewBox="0 0 20 22" version="1.1" xmlns="http://www.w3.org/2000/svg" xmlns:xlink="http://www.w3.org/1999/xlink">
    <!-- Generator: Sketch 58 (84663) - https://sketch.com -->
    <title>Slice 1</title>
    <desc>Created with Sketch.</desc>
    <g id="Page-1" stroke="none" stroke-width="1" fill="none" fill-rule="evenodd">
        <g id="noun_Delete_2899273" fill="#FFFFFF" fill-rule="nonzero">
            <g id="Group">
                <path d="M6,2 L14,2 C14.5522847,2 15,1.55228475 15,1 C15,0.44771525 14.5522847,0 14,0 L6,0 C5.44771525,0 5,0.44771525 5,1 C5,1.55228475 5.44771525,2 6,2 Z" id="Path"></path>
                <path d="M19,4 L1,4 C0.44771525,4 0,4.44771525 0,5 C0,5.55228475 0.44771525,6 1,6 L2,6 L2,19 C2,20.6568542 3.34314575,22 5,22 L15,22 C16.6568542,22 18,20.6568542 18,19 L18,6 L19,6 C19.5522847,6 20,5.55228475 20,5 C20,4.44771525 19.5522847,4 19,4 Z M7,17 C7,17.5522847 6.55228475,18 6,18 C5.44771525,18 5,17.5522847 5,17 L5,9 C5,8.44771525 5.44771525,8 6,8 C6.55228475,8 7,8.44771525 7,9 L7,17 Z M11,17 C11,17.5522847 10.5522847,18 10,18 C9.44771525,18 9,17.5522847 9,17 L9,9 C9,8.44771525 9.44771525,8 10,8 C10.5522847,8 11,8.44771525 11,9 L11,17 Z M15,17 C15,17.5522847 14.5522847,18 14,18 C13.4477153,18 13,17.5522847 13,17 L13,9 C13,8.44771525 13.4477153,8 14,8 C14.5522847,8 15,8.44771525 15,9 L15,17 Z" id="Shape"></path>
            </g>
        </g>
    </g>
</svg>