<?xml version="1.0" encoding="UTF-8"?>
<svg width="47px" height="41px" viewBox="0 0 47 41" version="1.1" xmlns="http://www.w3.org/2000/svg" xmlns:xlink="http://www.w3.org/1999/xlink">
    <!-- Generator: Sketch 58 (84663) - https://sketch.com -->
    <title>Slice 1</title>
    <desc>Created with Sketch.</desc>
    <g id="Page-1" stroke="none" stroke-width="1" fill="none" fill-rule="evenodd">
        <g id="noun_logout_1350648" fill="#FFFFFF" fill-rule="nonzero">
            <g id="Group">
                <g id="Shape">
                    <path d="M13.5,18 C13.7761424,18 14,18.2238576 14,18.5 C14,18.7761424 13.7761424,19 13.5,19 L4.4953976,19 C4.2222858,19 4,19.2248991 4,19.5087752 L4,42.4912248 C4,42.7732385 4.2263849,43 4.5087752,43 L42.4912248,43 C42.7732385,43 43,42.7736151 43,42.4912248 L43,19.5087752 C43,19.2305489 42.7709283,19 42.5046024,19 L33.5,19 C33.2238576,19 33,18.7761424 33,18.5 C33,18.2238576 33.2238576,18 33.5,18 L42.5046024,18 C43.3246571,18 44,18.6796979 44,19.5087752 L44,42.4912248 C44,43.3262722 43.3251515,44 42.4912248,44 L4.5087752,44 C3.6737278,44 3,43.3251515 3,42.4912248 L3,19.5087752 C3,18.6752137 3.6673678,18 4.4953976,18 L13.5,18 Z M23.8482234,-2.8514072 L36.844844,10.1804483 C37.3155314,10.6514483 36.6090006,11.3584483 36.1383131,10.8874483 L24.3495774,-0.908144401 C24.1528548,-1.1049814 23.9993738,-1.0357139 23.9993738,-0.760829601 L23.9993738,36.5022779 C23.9993738,36.775322 23.7756647,37 23.4997056,37 C23.2318171,37 23.0000374,36.7771622 23.0000374,36.5022779 L23.0000374,-0.760829601 C23.0000374,-1.0338737 22.8432588,-1.101669 22.6498626,-0.908144401 L10.8620974,10.8874483 C10.3914099,11.3584483 9.6838798,10.6514483 10.1555665,10.1804483 L23.1343497,-2.8514072 C23.3319878,-3.0498534 23.6509573,-3.0492082 23.8482234,-2.8514072 Z" transform="translate(23.500000, 20.500000) rotate(90.000000) translate(-23.500000, -20.500000) "></path>
                </g>
            </g>
        </g>
    </g>
</svg>