<?xml version="1.0" encoding="UTF-8"?>
<svg width="58px" height="50px" viewBox="0 0 58 50" version="1.1" xmlns="http://www.w3.org/2000/svg" xmlns:xlink="http://www.w3.org/1999/xlink">
    <!-- Generator: Sketch 58 (84663) - https://sketch.com -->
    <title>Slice 1</title>
    <desc>Created with Sketch.</desc>
    <g id="Page-1" stroke="none" stroke-width="1" fill="none" fill-rule="evenodd">
        <g id="noun_Sync_964430" fill="#777777" fill-rule="nonzero">
            <path d="M58,25 L54,25 C54,38.8 42.8,50 29,50 C22.1,50 15.4,47.1 10.7,42.1 L13.6,39.4 C17.6,43.6 23.1,46.1 28.9,46.1 C40.5,46.1 49.9,36.7 49.9,25.1 L45.9,25.1 L51.9,17.1 L58,25 Z M8,25 C8,13.4 17.4,4 29,4 C34.8,4 40.4,6.4 44.3,10.7 L47.2,8 C42.6,2.9 35.9,0 29,0 C15.2,0 4,11.2 4,25 L0,25 L6,33 L12,25 L8,25 Z" id="Shape"></path>
        </g>
    </g>
</svg>