<?xml version="1.0" encoding="UTF-8"?>
<svg width="96px" height="96px" viewBox="0 0 96 96" version="1.1" xmlns="http://www.w3.org/2000/svg" xmlns:xlink="http://www.w3.org/1999/xlink">
    <!-- Generator: Sketch 58 (84663) - https://sketch.com -->
    <title>Slice 1</title>
    <desc>Created with Sketch.</desc>
    <g id="Page-1" stroke="none" stroke-width="1" fill="none" fill-rule="evenodd">
        <g id="noun_note_2937050" fill="#FFFFFF" fill-rule="nonzero">
            <g id="Group">
                <g>
                    <path d="M75.9,54.8 C73.9,54.8 72.3,56.4 72.3,58.4 L72.3,82.2 C72.3,85.5 69.6,88.2 66.3,88.2 L13.7,88.2 C10.4,88.2 7.7,85.5 7.7,82.2 L7.7,29.6 C7.7,26.3 10.4,23.6 13.7,23.6 L37.5,23.6 C39.5,23.6 41.1,22 41.1,20 C41.1,18 39.5,16.4 37.5,16.4 L13.7,16.4 C6.4,16.4 0.5,22.3 0.5,29.6 L0.5,82.2 C0.5,89.5 6.4,95.4 13.7,95.4 L66.3,95.4 C73.6,95.4 79.5,89.5 79.5,82.2 L79.5,58.4 C79.5,56.4 77.9,54.8 75.9,54.8 Z" id="Path"></path>
                    <path d="M93.2,13.5 L82.5,2.8 C79.5,-0.2 74.2,-0.2 71.2,2.8 L25.9,48.1 C24,50 22.7,52.6 22.4,55.4 L21,66.9 C20.7,69.1 21.5,71.3 23.1,72.9 C24.5,74.3 26.3,75 28.2,75 C28.5,75 28.8,75 29.1,74.9 L40.7,73.5 C43.4,73.2 46,71.9 48,70 L93.3,24.7 C96.3,21.6 96.3,16.6 93.2,13.5 Z M65.7,18.5 L77.5,30.3 L49.5,58.3 L37.7,46.5 L65.7,18.5 Z M39.8,66.4 L28.2,67.8 L29.6,56.2 C29.7,55.1 30.3,54 31.1,53.2 L32.7,51.6 L44.5,63.4 L42.9,65 C42,65.7 40.9,66.3 39.8,66.4 Z M88.1,19.7 L82.6,25.2 L70.8,13.4 L76.3,7.9 C76.5,7.7 76.7,7.7 76.8,7.7 C76.9,7.7 77.2,7.7 77.3,7.9 L88,18.6 C88.4,18.9 88.4,19.4 88.1,19.7 Z" id="Shape"></path>
                </g>
            </g>
        </g>
    </g>
</svg>