<?xml version="1.0" encoding="UTF-8"?>
<svg width="43px" height="43px" viewBox="0 0 43 43" version="1.1" xmlns="http://www.w3.org/2000/svg" xmlns:xlink="http://www.w3.org/1999/xlink">
    <!-- Generator: Sketch 58 (84663) - https://sketch.com -->
    <title>Slice 1</title>
    <desc>Created with Sketch.</desc>
    <g id="Page-1" stroke="none" stroke-width="1" fill="none" fill-rule="evenodd">
        <g id="noun_Hamburger_1106326">
            <rect id="Rectangle" x="0" y="0" width="43" height="43"></rect>
            <path d="M36.127,11.505 C36.239,11.52 36.268,11.52 36.378,11.548 C36.666,11.623 36.929,11.785 37.126,12.009 C37.238,12.137 37.329,12.283 37.392,12.441 C37.455,12.598 37.491,12.767 37.499,12.936 C37.522,13.497 37.221,14.036 36.732,14.31 C36.583,14.392 36.421,14.45 36.254,14.478 C36.142,14.498 36.113,14.495 36,14.5 L8,14.5 C7.887,14.495 7.858,14.498 7.747,14.478 C7.453,14.428 7.177,14.289 6.962,14.083 C6.839,13.965 6.737,13.827 6.661,13.675 C6.584,13.524 6.534,13.359 6.512,13.191 C6.452,12.723 6.622,12.243 6.962,11.917 C7.054,11.829 7.157,11.753 7.268,11.69 C7.417,11.608 7.579,11.55 7.747,11.522 C7.858,11.502 7.887,11.505 8,11.5 L36,11.5 C36.042,11.502 36.085,11.504 36.127,11.505 L36.127,11.505 Z" id="Path" fill="#FFFFFF"></path>
            <path d="M36.127,20.505 C36.239,20.52 36.268,20.52 36.378,20.548 C36.666,20.623 36.929,20.785 37.126,21.009 C37.238,21.137 37.329,21.283 37.392,21.441 C37.601,21.961 37.496,22.57 37.126,22.991 C37.014,23.119 36.88,23.227 36.732,23.31 C36.583,23.392 36.421,23.45 36.254,23.478 C36.142,23.498 36.113,23.495 36,23.5 L8,23.5 C7.887,23.495 7.858,23.498 7.747,23.478 C7.579,23.45 7.417,23.392 7.268,23.31 C6.857,23.079 6.572,22.658 6.512,22.191 C6.496,22.064 6.496,21.936 6.512,21.809 C6.534,21.641 6.584,21.476 6.661,21.325 C6.737,21.173 6.839,21.035 6.962,20.917 C7.177,20.711 7.453,20.572 7.747,20.522 C7.858,20.502 7.887,20.505 8,20.5 L36,20.5 C36.042,20.502 36.085,20.504 36.127,20.505 L36.127,20.505 Z" id="Path" fill="#FFFFFF"></path>
            <path d="M36.127,29.505 C36.239,29.52 36.268,29.52 36.378,29.548 C36.666,29.623 36.929,29.785 37.126,30.009 C37.496,30.43 37.601,31.039 37.392,31.559 C37.329,31.717 37.238,31.863 37.126,31.991 C37.014,32.119 36.88,32.227 36.732,32.31 C36.583,32.392 36.421,32.45 36.254,32.478 C36.142,32.498 36.113,32.495 36,32.5 L8,32.5 C7.887,32.495 7.858,32.498 7.747,32.478 C7.453,32.428 7.177,32.289 6.962,32.083 C6.87,31.995 6.79,31.895 6.723,31.786 C6.475,31.385 6.432,30.878 6.608,30.441 C6.672,30.283 6.762,30.137 6.874,30.009 C6.986,29.881 7.12,29.773 7.268,29.69 C7.417,29.608 7.579,29.55 7.747,29.522 C7.858,29.502 7.887,29.505 8,29.5 L36,29.5 C36.042,29.502 36.085,29.504 36.127,29.505 Z" id="Path" fill="#FFFFFF"></path>
        </g>
    </g>
</svg>